<?xml version="1.0" standalone="no"?>
<!DOCTYPE svg PUBLIC "-//W3C//DTD SVG 20010904//EN"
 "http://www.w3.org/TR/2001/REC-SVG-20010904/DTD/svg10.dtd">
<svg version="1.0" xmlns="http://www.w3.org/2000/svg"
 width="256.000000pt" height="256.000000pt" viewBox="0 0 256.000000 256.000000"
 preserveAspectRatio="xMidYMid meet">
<metadata>
Created by potrace 1.11, written by Peter Selinger 2001-2013
</metadata>
<g transform="translate(0.000000,256.000000) scale(0.100000,-0.100000)"
fill="#000000" stroke="none">
<path d="M1068 2539 c-271 -47 -488 -160 -684 -354 -340 -337 -463 -810 -329
-1270 73 -252 247 -499 466 -664 154 -117 372 -207 573 -237 121 -19 332 -13
446 11 503 110 885 492 995 995 24 114 30 325 11 446 -28 188 -100 372 -209
534 -65 98 -241 273 -341 340 -273 183 -611 255 -928 199z m-126 -279 c74 -23
161 -76 266 -162 64 -53 75 -58 90 -46 9 7 48 39 87 71 38 32 111 79 162 104
74 37 104 46 160 50 60 4 74 1 123 -24 63 -32 111 -101 129 -185 20 -89 10
-262 -22 -399 -1 -6 39 -25 89 -43 123 -45 207 -91 272 -151 204 -186 92 -409
-271 -540 -50 -19 -91 -38 -89 -44 22 -97 34 -212 30 -303 -4 -99 -7 -114 -39
-175 -27 -54 -44 -73 -83 -98 -44 -27 -58 -30 -126 -30 -72 0 -83 3 -171 47
-52 26 -123 72 -159 103 -116 98 -98 96 -187 23 -231 -188 -400 -226 -519
-116 -68 62 -88 125 -88 278 -1 75 5 153 14 195 8 39 15 74 15 78 0 5 -46 26
-103 47 -185 70 -312 168 -346 266 -20 59 -20 88 0 146 37 111 172 210 384
283 51 18 65 26 63 41 -2 11 -10 62 -19 114 -31 186 -3 348 73 422 72 70 149
84 265 48z"/>
<path d="M744 2145 c-44 -47 -58 -113 -51 -251 6 -134 23 -218 43 -210 8 3 36
8 63 12 l50 6 -18 -48 c-14 -37 -26 -50 -47 -57 -16 -6 -30 -11 -31 -12 -2 -1
8 -35 22 -76 26 -77 66 -166 137 -306 l41 -82 -35 -36 -35 -36 -29 55 c-16 31
-32 56 -35 56 -3 0 -18 -37 -34 -83 -16 -45 -30 -87 -32 -94 -3 -6 10 -14 27
-18 l32 -7 -20 -21 c-11 -12 -23 -32 -26 -43 -5 -15 -12 -20 -25 -17 -16 4
-21 -4 -31 -49 -7 -29 -15 -102 -17 -162 -7 -138 7 -204 51 -251 31 -32 38
-35 92 -35 47 0 74 7 129 34 106 50 251 166 241 192 -3 8 20 13 77 16 45 2 84
3 86 1 2 -1 -1 -9 -8 -17 -9 -11 0 -23 46 -63 131 -112 229 -163 315 -163 46
0 62 5 87 25 45 38 65 103 66 210 0 84 -19 230 -34 253 -4 7 -23 7 -59 0 -29
-6 -54 -9 -57 -6 -2 2 2 24 9 48 11 37 19 46 45 54 17 5 31 13 31 18 0 29 -99
263 -157 373 l-70 130 30 39 c29 36 31 37 45 20 7 -11 24 -39 37 -64 49 -93
48 -93 83 4 18 48 32 91 32 96 0 5 -27 15 -60 22 -63 13 -69 18 -45 38 8 7 15
21 15 32 0 26 19 31 71 19 30 -7 46 -7 50 1 14 23 34 168 34 253 -1 107 -21
172 -66 210 -70 58 -207 19 -359 -102 -97 -77 -105 -87 -85 -103 8 -7 15 -15
15 -19 0 -3 -45 -6 -99 -6 -96 0 -99 1 -83 19 16 17 14 21 -38 69 -64 59 -166
126 -228 150 -23 10 -68 17 -99 17 -51 0 -59 -3 -89 -35z m715 -333 c63 -25
159 -86 168 -107 5 -15 -103 -159 -115 -153 -4 2 -38 19 -77 38 -61 31 -79 35
-145 35 -86 0 -122 -17 -139 -66 -23 -67 9 -95 207 -175 153 -62 172 -73 224
-125 45 -45 60 -68 74 -114 33 -116 3 -235 -82 -320 -149 -149 -446 -153 -656
-9 -38 25 -68 48 -68 50 0 6 132 159 140 162 5 2 27 -10 50 -27 83 -60 200
-90 279 -71 62 15 93 46 94 96 2 54 -43 87 -214 158 -78 33 -160 73 -183 90
-85 65 -136 183 -121 279 21 127 103 218 242 267 78 28 241 24 322 -8z"/>
<path d="M562 1535 c-82 -32 -190 -89 -224 -120 -71 -62 -95 -134 -64 -194 26
-49 106 -112 199 -156 90 -42 174 -72 180 -64 2 2 27 66 56 142 l53 139 -40
101 c-22 56 -45 119 -52 140 -14 44 -22 45 -108 12z"/>
<path d="M1896 1533 c-4 -15 -27 -79 -52 -140 l-45 -113 45 -112 c25 -62 48
-125 51 -140 4 -16 14 -28 22 -28 31 0 200 74 265 116 161 103 161 222 1 329
-60 41 -195 100 -252 111 -25 5 -29 2 -35 -23z"/>
</g>
</svg>
